<svg id="Layer_1" data-name="Layer 1" xmlns="http://www.w3.org/2000/svg" viewBox="0 0 312.29 672.85"><defs><style>.cls-1{fill:#ff7a3c;}.cls-2{fill:#ff9a42;}.cls-3{fill:#ffe8c2;}.cls-4{fill:#ff5a35;}.cls-5{fill:#b4e6a0;}.cls-6{fill:#78c3a5;}.cls-7{fill:#64af96;}.cls-8{fill:#fff6d8;}.cls-9{fill:#ffedb1;}.cls-10{fill:#d2ebb9;}.cls-11{fill:#96d7a5;}.cls-12{fill:#b4001e;}.cls-13{fill:#46001e;}.cls-14{fill:#550015;}.cls-15{fill:#ff3a2f;}.cls-16{fill:#fff;}.cls-17{fill:#5ea570;}.cls-18{fill:#528e61;}.cls-19{fill:#ffa135;}.cls-20{fill:#d47700;}</style></defs><title>italian hotdog</title><path class="cls-1" d="M344.83,4l-4.35,487.42a61.81,61.81,0,0,0,62.36-61.26l3.25-363.8A61.82,61.82,0,0,0,344.83,4Z" transform="translate(-93.8 89.58)"/><path class="cls-2" d="M371.94,429.85l3.24-363.8C375.49,31.91,361.9,4.11,344.83,4a30.77,30.77,0,0,0-15.49,4L325.07,487.1a30.74,30.74,0,0,0,15.41,4.28c17.07.15,31.15-27.39,31.46-61.53Z" transform="translate(-93.8 89.58)"/><path class="cls-3" d="M340.76,460.48l3.79-425.61A30.86,30.86,0,0,0,329.34,8a30.88,30.88,0,0,0-15.69,26.62L270.55,247l39.3,213.17a30.89,30.89,0,0,0,15.22,26.9,30.9,30.9,0,0,0,15.69-26.62Z" transform="translate(-93.8 89.58)"/><path class="cls-2" d="M159.4,2.31A61.81,61.81,0,0,0,97,63.57L93.8,427.37a61.81,61.81,0,0,0,61.26,62.36,30.73,30.73,0,0,0,15.48-4L174.82,6.59A30.75,30.75,0,0,0,159.4,2.31Z" transform="translate(-93.8 89.58)"/><path class="cls-3" d="M155.33,458.82l3.8-425.61A30.88,30.88,0,0,1,174.82,6.59,30.86,30.86,0,0,1,190,33.49l59.91,213.35L186.23,459.1a30.86,30.86,0,0,1-15.69,26.62,30.91,30.91,0,0,1-15.21-26.9Z" transform="translate(-93.8 89.58)"/><circle class="cls-1" cx="30.91" cy="517.22" r="7.73"/><circle class="cls-1" cx="62.09" cy="486.59" r="7.73"/><circle class="cls-4" cx="281.39" cy="155.63" r="7.73"/><path class="cls-5" d="M304.56,73.3c-68.18-58.84-102.09,9.35-102.09,9.35l1.87,159.85L313,239.6Z" transform="translate(-93.8 89.58)"/><path class="cls-6" d="M187.89,345.28c-2.23-83.49-61.89-99.51-73.71-125.55-11.47-25.28,14.08-32.41,7-51.36-11.2-30.08-1.17-61.2,35.28-58.44l31.5-.84,6.3,236Z" transform="translate(-93.8 89.58)"/><path class="cls-7" d="M173.54,286.93c8,14.89,13.69,33.65,14.35,58.35l6.4-.17-3.93-147-6.39.17a12.79,12.79,0,0,0-12.44,13.13Z" transform="translate(-93.8 89.58)"/><path class="cls-8" d="M260.93,445.67a70.32,70.32,0,0,1-72.18-68.43L185,236.62l140.62-3.75,3.76,140.62A70.33,70.33,0,0,1,260.93,445.67Z" transform="translate(-93.8 89.58)"/><path class="cls-9" d="M273,419.76a44.75,44.75,0,0,1-45.93-43.54l-3.07-115,89.48-2.39,3.07,115.05A44.74,44.74,0,0,1,273,419.76Z" transform="translate(-93.8 89.58)"/><path class="cls-9" d="M201.53,376.9l-3.75-140.62-12.79.34,3.76,140.62a70.32,70.32,0,0,0,72.18,68.43c2.16-.05,4.29-.24,6.39-.49A70.31,70.31,0,0,1,201.53,376.9Z" transform="translate(-93.8 89.58)"/><path class="cls-10" d="M260.25,420.11a44.75,44.75,0,0,1-45.93-43.55L209.2,184.81l6.39-.17a83.12,83.12,0,0,1,85.31,80.87l2.9,108.66A44.76,44.76,0,0,1,260.25,420.11Z" transform="translate(-93.8 89.58)"/><path class="cls-5" d="M241.33,190.35l-32.13-5.54,4.94,185.36A25.59,25.59,0,0,0,239,343.92l-.11-4C237.34,280.8,265.14,243.81,241.33,190.35Z" transform="translate(-93.8 89.58)"/><path class="cls-11" d="M222.65,134.61c8.89-32.45-14.83-69.9-42.26-70.52a31,31,0,0,0-12.73,2.43c-20.56,8.55-21.08,34.14-12.79,45.12,19.57,25.91,27.18,14.86,28.72,72.39l3.28,122.9a25.59,25.59,0,0,0,26.25,24.89l-1.67-62.59c-.94-35.15,30.9-40.53,29.93-76.75C240.53,160.52,215.36,161.19,222.65,134.61Z" transform="translate(-93.8 89.58)"/><path class="cls-5" d="M282.13,221.24S281.06,263.06,270,306.3c-13,51-10.47,87.11-9.76,113.81a44.76,44.76,0,0,0,43.55-45.94l-4.1-153.4-19.17.51" transform="translate(-93.8 89.58)"/><path class="cls-11" d="M190.88,262.57A6.38,6.38,0,0,1,185,259l-43.93-88.09a6.4,6.4,0,1,1,11.45-5.71l43.92,88.1a6.39,6.39,0,0,1-5.55,9.24Z" transform="translate(-93.8 89.58)"/><path class="cls-6" d="M191.57,243.6l-18.88-37.88a12.71,12.71,0,0,0-1.16,5.68l.58,21.8L185,259a6.38,6.38,0,0,0,5.89,3.54,6.49,6.49,0,0,0,1.19-.3Z" transform="translate(-93.8 89.58)"/><path class="cls-5" d="M315.72,430.05c-2.23-83.49,56.5-102.68,66.91-129.31,10.1-25.86-15.79-31.61-9.76-50.91,9.58-30.64-2.1-61.18-38.35-56.48l-31.49.84,6.3,236Z" transform="translate(-93.8 89.58)"/><path class="cls-11" d="M304.21,344.78a6.38,6.38,0,0,0,5.7-3.85l39.16-90.31a6.39,6.39,0,0,0-11.73-5.08l-39.16,90.31a6.39,6.39,0,0,0,3.32,8.41A6.32,6.32,0,0,0,304.21,344.78Z" transform="translate(-93.8 89.58)"/><path class="cls-11" d="M274.74,249.11a6.43,6.43,0,0,1-6.25-4.39c-2.71-8.23-7.65-12.21-14.49-17.73-9.33-7.54-20.95-16.91-30.85-40.26a6.39,6.39,0,1,1,11.77-5c8.64,20.4,18.46,28.31,27.11,35.3,7.57,6.1,14.71,11.87,18.61,23.67a6.4,6.4,0,0,1-5.9,8.4Z" transform="translate(-93.8 89.58)"/><path class="cls-11" d="M265.53,218.71C254.92,186.77,276.61,148.12,304,146a30.91,30.91,0,0,1,12.84,1.75c21,7.44,22.87,33,15.17,44.37-18.16,26.91-26.35,16.29-24.81,73.82l3.28,122.9a25.57,25.57,0,0,1-24.88,26.25l-1.67-62.58c-.94-35.16-33-38.83-34-75.05C249.06,245.53,274.23,244.86,265.53,218.71Z" transform="translate(-93.8 89.58)"/><path class="cls-6" d="M184,198.27l2.9,108.66a25.68,25.68,0,0,0,13.38,21.81l-3.15-118A12.79,12.79,0,0,0,184,198.27Z" transform="translate(-93.8 89.58)"/><path class="cls-11" d="M300.9,265.51a12.79,12.79,0,0,0-12.44,13.13L291,374.51c.54,20.27-11.87,39.9-30.77,45.6h0a44.76,44.76,0,0,0,43.55-45.94Z" transform="translate(-93.8 89.58)"/><path class="cls-6" d="M300.93,266.84l1.67,62.59a25.29,25.29,0,0,0,12.7-3.77L314,278a12.78,12.78,0,0,0-13.12-12.44h0Z" transform="translate(-93.8 89.58)"/><path class="cls-12" d="M172.49,310.1l-6.77,2.71s-2.15,8.08-3.47,12.61c-1.37,4.69-4.34,13.65-4.34,13.65l20.26,50.63a1.14,1.14,0,0,0,1.44.65c8.14-2.9,13-.36,15,1.12a5.67,5.67,0,0,0,5.21.88l.35-.13,3.61-1.44a12.75,12.75,0,0,0,7.37-15.68L193.43,320a15.83,15.83,0,0,0-20.94-9.85Z" transform="translate(-93.8 89.58)"/><path class="cls-13" d="M189.4,384.43l-.13,0a2,2,0,0,1-2.46-1.26L170,330.92a2,2,0,0,1,3.72-1.19L190.53,382a2,2,0,0,1-1.13,2.41Z" transform="translate(-93.8 89.58)"/><path class="cls-14" d="M173.78,309.62a15.73,15.73,0,0,1,8,9.34l17.74,55.15a12.74,12.74,0,0,1-7.37,15.67l-.34.14a11.38,11.38,0,0,1,2.77,1.53,5.66,5.66,0,0,0,5.21.87l.35-.13,3.61-1.44a12.73,12.73,0,0,0,7.36-15.67l-17.73-55.16a15.82,15.82,0,0,0-19.64-10.3Z" transform="translate(-93.8 89.58)"/><path class="cls-15" d="M253-89.58l-6,672.85A61.81,61.81,0,0,0,309.3,522l4.9-549.23A61.81,61.81,0,0,0,253-89.58Z" transform="translate(-93.8 89.58)"/><path class="cls-4" d="M252.94-89.58a61.82,61.82,0,0,0-62.36,61.26l-4.9,549.23a61.82,61.82,0,0,0,61.26,62.36c17.07.15,31.15-27.4,31.46-61.53l4.9-549.23c.3-34.14-13.29-61.94-30.36-62.09Z" transform="translate(-93.8 89.58)"/><path class="cls-16" d="M241.25,501.17a13.57,13.57,0,0,1-12.63-12.86C228,470.54,236.7,461.5,243,454.9c5.33-5.55,8.55-8.91,8.28-16.94s-3.73-11.72-9.46-17.85c-6.8-7.28-16.12-17.25-16.73-35s8.08-26.81,14.42-33.41c5.33-5.55,8.55-8.9,8.27-16.93s-3.73-11.73-9.45-17.85c-6.81-7.28-16.13-17.25-16.73-35s8.07-26.81,14.41-33.41c5.33-5.55,8.55-8.9,8.28-16.93s-3.73-11.72-9.46-17.85c-6.81-7.28-16.13-17.25-16.73-35s8.08-26.82,14.41-33.41c5.33-5.56,8.55-8.91,8.28-16.94a11,11,0,0,1,11.81-11.59,13.56,13.56,0,0,1,12.63,12.86c.6,17.77-8.08,26.81-14.41,33.41-5.33,5.55-8.55,8.9-8.28,16.93s3.73,11.73,9.46,17.85c6.8,7.28,16.12,17.25,16.73,35s-8.08,26.81-14.41,33.41c-5.34,5.55-8.56,8.9-8.28,16.93s3.73,11.73,9.45,17.85c6.81,7.28,16.13,17.25,16.73,35s-8.07,26.82-14.41,33.42c-5.33,5.55-8.55,8.9-8.28,16.93s3.73,11.73,9.46,17.85c6.81,7.28,16.13,17.25,16.73,35s-8.07,26.81-14.41,33.41c-5.33,5.56-8.55,8.91-8.28,16.94a11,11,0,0,1-11.81,11.59Z" transform="translate(-93.8 89.58)"/><path d="M252.37,99.38a46.47,46.47,0,0,1-28.52-9.77,7.78,7.78,0,1,1,9.53-12.29,31,31,0,0,0,38,0,7.78,7.78,0,0,1,9.54,12.29A46.49,46.49,0,0,1,252.37,99.38Z" transform="translate(-93.8 89.58)"/><circle cx="225.59" cy="152.92" r="10.77"/><circle cx="94.32" cy="152.92" r="10.77"/><path class="cls-17" d="M344,389.81l-6.92-2.3s-6.85,4.79-10.78,7.4-12.13,7.62-12.13,7.62l-17.2,51.76a1.15,1.15,0,0,0,.69,1.42c8.09,3,10.2,8.14,10.75,10.55a5.68,5.68,0,0,0,3.41,4l.35.13,3.69,1.22a12.72,12.72,0,0,0,15.74-7.21l22-53.58a15.83,15.83,0,0,0-9.64-21Z" transform="translate(-93.8 89.58)"/><path class="cls-18" d="M308.93,457.5l-.13-.05a1.94,1.94,0,0,1-1.06-2.54l20.89-50.8a2,2,0,0,1,3.61,1.48l-20.89,50.8a2,2,0,0,1-2.42,1.11Z" transform="translate(-93.8 89.58)"/><path class="cls-18" d="M345.27,390.27a15.78,15.78,0,0,1,.12,12.33l-22,53.58a12.73,12.73,0,0,1-15.75,7.21l-.35-.11a11.34,11.34,0,0,1,1.14,3,5.68,5.68,0,0,0,3.41,4l.35.13,3.69,1.23a12.74,12.74,0,0,0,15.74-7.22l22-53.58a15.83,15.83,0,0,0-8.35-20.55Z" transform="translate(-93.8 89.58)"/><path class="cls-17" d="M164.89,128.61l-4,3s0,5.78,0,9-.42,9.89-.42,9.89l22.71,30.08a.79.79,0,0,0,1.08.17c4.9-3.42,8.64-2.62,10.23-2a3.91,3.91,0,0,0,3.62-.37,1.37,1.37,0,0,0,.21-.15l2.15-1.61a8.8,8.8,0,0,0,2.06-11.79l-21.85-33.55a10.92,10.92,0,0,0-15.75-2.76Z" transform="translate(-93.8 89.58)"/><path class="cls-18" d="M189.67,175.09l-.07,0a1.35,1.35,0,0,1-1.87-.39L167,142.94a1.36,1.36,0,0,1,.4-1.87,1.34,1.34,0,0,1,1.86.4L190,173.28a1.35,1.35,0,0,1-.32,1.81Z" transform="translate(-93.8 89.58)"/><path class="cls-18" d="M165.66,128.05a10.91,10.91,0,0,1,7.06,4.76l21.85,33.55a8.8,8.8,0,0,1-2.06,11.79l-.21.16a7.81,7.81,0,0,1,2.13.51,3.9,3.9,0,0,0,3.63-.36l.21-.15,2.15-1.62a8.81,8.81,0,0,0,2.06-11.79l-21.85-33.55a10.94,10.94,0,0,0-15-3.3Z" transform="translate(-93.8 89.58)"/><path class="cls-19" d="M334,184.67l-5.07-1.3s-4.87,4.55-7.67,7-8.63,7.35-8.63,7.35L301.25,242a.88.88,0,0,0,.53,1.11c5.93,1.81,7.57,5.85,8,7.8a4,4,0,0,0,2.56,3l.26.07,2.7.69c4.61,1.19,9.56-2,11.27-7.32l14.85-46.2c2.35-7.31-1.06-14.92-7.44-16.56Z" transform="translate(-93.8 89.58)"/><path class="cls-20" d="M310,243.66l-.09,0a1.57,1.57,0,0,1-.83-2l14.09-43.8a1.48,1.48,0,0,1,1.82-1.1,1.58,1.58,0,0,1,.83,2l-14.09,43.8a1.5,1.5,0,0,1-1.73,1.13Z" transform="translate(-93.8 89.58)"/><path class="cls-20" d="M335,184.94a14.68,14.68,0,0,1,.35,10.18l-14.86,46.2c-1.7,5.29-6.65,8.51-11.27,7.33l-.25-.07a10,10,0,0,1,.89,2.35,4,4,0,0,0,2.55,3l.26.08,2.7.69c4.62,1.19,9.57-2,11.27-7.33l14.86-46.19c2.23-7-.74-14.15-6.5-16.27Z" transform="translate(-93.8 89.58)"/></svg>